# xmcd CD database file
#
# Track frame offsets:
#	150
#	25049
#	53204
#	75448
#	113452
#	131185
#	147769
#	174040
#	220076
#
# Disc length: 3146 seconds
#
# Revision: 0
# Processed by: cddbd v1.5.2PL0 Copyright (c) Steve Scherf et al.
# Submitted via: CDex 1.51
#
DISCID=690c4809
DTITLE=Andalbluses - Plays B. B. King
DYEAR=2008
DGENRE=Blues
TTITLE0=When Loves Come To Town
TTITLE1=Let The Good Times Roll
TTITLE2=So Excited
TTITLE3=The Thrill Is Gone
TTITLE4=Something You Got
TTITLE5=Since I Meet You Baby
TTITLE6=Guess Who
TTITLE7=Every Day I Have The Blues
TTITLE8=Peace To The World
EXTD=YEAR: 2008
EXTT0=
EXTT1=
EXTT2=
EXTT3=
EXTT4=
EXTT5=
EXTT6=
EXTT7=
EXTT8=
PLAYORDER=
